HIERARCHY
ROOT Hips
{
	OFFSET 0.000000 0.000000 0.000000
	CHANNELS 6 Xposition Yposition Zposition Zrotation Yrotation Xrotation 
	JOINT LHipJoint
	{
		OFFSET 0.000000 0.000000 0.000000
		CHANNELS 3 Zrotation Yrotation Xrotation
		JOINT LeftUpLeg
		{
			OFFSET 1.363060 -1.794630 0.839290
			CHANNELS 3 Zrotation Yrotation Xrotation
			JOINT LeftLeg
			{
				OFFSET 2.448110 -6.726130 0.000000
				CHANNELS 3 Zrotation Yrotation Xrotation
				JOINT LeftFoot
				{
					OFFSET 2.562200 -7.039590 0.000000
					CHANNELS 3 Zrotation Yrotation Xrotation
					JOINT LeftToeBase
					{
						OFFSET 0.157640 -0.433110 2.322550
						CHANNELS 3 Zrotation Yrotation Xrotation
						End Site
						{
							OFFSET 0.000000 0.000000 0.000000
						}
					}
				}
			}
		}
	}
	JOINT RHipJoint
	{
		OFFSET 0.000000 0.000000 0.000000
		CHANNELS 3 Zrotation Yrotation Xrotation
		JOINT RightUpLeg
		{
			OFFSET -1.305520 -1.794630 0.839290
			CHANNELS 3 Zrotation Yrotation Xrotation
			JOINT RightLeg
			{
				OFFSET -2.542530 -6.985550 0.000000
				CHANNELS 3 Zrotation Yrotation Xrotation
				JOINT RightFoot
				{
					OFFSET -2.568260 -7.056230 0.000000
					CHANNELS 3 Zrotation Yrotation Xrotation
					JOINT RightToeBase
					{
						OFFSET -0.164730 -0.452590 2.363150
						CHANNELS 3 Zrotation Yrotation Xrotation
						End Site
						{
							OFFSET 0.000000 0.000000 0.000000
						}
					}
				}
			}
		}
	}
	JOINT LowerBack
	{
		OFFSET 0.000000 0.000000 0.000000
		CHANNELS 3 Zrotation Yrotation Xrotation
		JOINT Spine
		{
			OFFSET 0.028270 2.035590 -0.193380
			CHANNELS 3 Zrotation Yrotation Xrotation
			JOINT Spine1
			{
				OFFSET 0.056720 2.048850 -0.042750
				CHANNELS 3 Zrotation Yrotation Xrotation
				JOINT Neck
				{
					OFFSET 0.000000 0.000000 0.000000
					CHANNELS 3 Zrotation Yrotation Xrotation
					JOINT Neck1
					{
						OFFSET -0.054170 1.746240 0.172020
						CHANNELS 3 Zrotation Yrotation Xrotation
						JOINT Head
						{
							OFFSET 0.104070 1.761360 -0.123970
							CHANNELS 3 Zrotation Yrotation Xrotation
							End Site
							{
								OFFSET 0.000000 0.000000 0.000000
							}
						}
					}
				}
				JOINT LeftShoulder
				{
					OFFSET 0.000000 0.000000 0.000000
					CHANNELS 3 Zrotation Yrotation Xrotation
					JOINT LeftArm
					{
						OFFSET 3.362410 1.200890 -0.311210
						CHANNELS 3 Zrotation Yrotation Xrotation
						JOINT LeftForeArm
						{
							OFFSET 4.983000 -0.000000 -0.000000
							CHANNELS 3 Zrotation Yrotation Xrotation
							JOINT LeftHand
							{
								OFFSET 3.483560 -0.000000 -0.000000
								CHANNELS 3 Zrotation Yrotation Xrotation
								JOINT LeftFingerBase
								{
									OFFSET 0.000000 0.000000 0.000000
									CHANNELS 3 Zrotation Yrotation Xrotation
									JOINT LeftHandIndex1
									{
										OFFSET 0.715260 -0.000000 -0.000000
										CHANNELS 3 Zrotation Yrotation Xrotation
										End Site
										{
											OFFSET 0.000000 0.000000 0.000000
										}
									}
								}
								JOINT LThumb
								{
									OFFSET 0.000000 0.000000 0.000000
									CHANNELS 3 Zrotation Yrotation Xrotation
									End Site
									{
										OFFSET 0.000000 0.000000 0.000000
									}
								}
							}
						}
					}
				}
				JOINT RightShoulder
				{
					OFFSET 0.000000 0.000000 0.000000
					CHANNELS 3 Zrotation Yrotation Xrotation
					JOINT RightArm
					{
						OFFSET -3.136600 1.374050 -0.404650
						CHANNELS 3 Zrotation Yrotation Xrotation
						JOINT RightForeArm
						{
							OFFSET -5.241900 -0.000000 -0.000000
							CHANNELS 3 Zrotation Yrotation Xrotation
							JOINT RightHand
							{
								OFFSET -3.444170 -0.000000 -0.000000
								CHANNELS 3 Zrotation Yrotation Xrotation
								JOINT RightFingerBase
								{
									OFFSET 0.000000 0.000000 0.000000
									CHANNELS 3 Zrotation Yrotation Xrotation
									JOINT RightHandIndex1
									{
										OFFSET -0.622530 -0.000000 -0.000000
										CHANNELS 3 Zrotation Yrotation Xrotation
										End Site
										{
											OFFSET 0.000000 0.000000 0.000000
										}
									}
								}
								JOINT RThumb
								{
									OFFSET 0.000000 0.000000 0.000000
									CHANNELS 3 Zrotation Yrotation Xrotation
									End Site
									{
										OFFSET 0.000000 0.000000 0.000000
									}
								}
							}
						}
					}
				}
			}
		}
	}
}
MOTION
Frames: 6
Frame Time: 0.008333
8.966286 17.823046 25.575981 -178.351159 3.191776 -167.516069 4.875561 3.057995 -0.254198 -21.231200 -13.111595 -8.564008 0.310068 4.683961 14.188298 0.838509 -1.883989 -16.246682 8.300600 -16.335900 -53.638200 -10.600105 -5.008201 -2.117236 33.273466 5.647917 -7.032870 0.035051 -2.606051 11.131976 -0.801745 2.683555 -15.165921 -0.011400 -0.689900 1.896000 -0.759404 3.191878 -3.990989 0.418470 3.436816 -5.423209 1.545039 1.790721 2.488563 -7.673188 -0.035200 -13.256148 8.387611 -2.320208 24.060193 2.823800 -1.317600 10.063200 2.149678 -4.888455 1.092388 -91.935235 -3.025627 25.369291 7.368289 -16.437825 -1.901198 0.310598 1.147722 24.762627 29.767961 -15.048749 -9.229400 -7.125000 0.000000 0.000000 1.451300 11.262200 -1.140300 -1.638766 5.474349 1.813007 87.326692 -7.319010 -3.499217 -9.740345 28.506167 -5.055252 0.015884 -2.715652 13.959019 -21.571562 -44.818734 15.278100 7.125000 0.000000 0.000000 23.821300 -72.735300 -15.925800 
8.967786 17.822511 25.576409 -178.497123 3.155527 -167.582493 4.877974 3.064658 -0.251015 -21.435188 -13.147150 -8.394478 0.294790 4.628851 14.051696 0.832062 -1.755652 -16.213814 8.400900 -16.406400 -53.994300 -10.586289 -5.006852 -2.126880 33.100914 5.605854 -6.958139 0.049098 -2.580255 11.075460 -0.814382 2.320289 -15.297734 -0.038300 1.262600 -3.471500 -0.885462 3.176983 -4.009213 0.390883 3.433437 -5.423998 1.472847 1.781962 2.492413 -7.679703 0.024779 -13.280691 8.653644 -2.296205 24.070854 2.932100 -1.284300 10.075100 2.148741 -4.886263 1.096334 -91.803506 -3.155664 25.843230 7.342018 -16.410001 -1.894303 0.313601 1.149265 25.126444 29.872450 -14.958988 -9.222200 -7.125000 0.000000 0.000000 1.534000 11.342000 -1.202800 -1.692861 5.471073 1.808572 87.606173 -7.150074 -3.937504 -9.443053 28.167796 -4.930910 -0.071495 -2.712888 13.830636 -23.105697 -43.041338 15.774300 7.125000 0.000000 0.000000 18.867000 -71.642200 -12.093900 
8.969072 17.821546 25.578874 -178.473184 3.137758 -167.601749 4.879752 3.063596 -0.258877 -21.401765 -13.129835 -8.290763 0.280641 4.570837 13.899666 0.829332 -1.739906 -16.186502 8.415500 -16.416500 -54.045900 -10.587074 -5.004297 -2.118228 33.158378 5.724212 -6.912733 0.061214 -2.586786 11.087871 -0.825811 2.042024 -15.423198 -0.221300 3.028400 -8.357800 -0.843501 3.234118 -4.072481 0.366835 3.502804 -5.425606 1.354796 1.813092 2.501661 -7.593149 -0.015539 -13.267789 8.780068 -2.421930 24.109290 2.953500 -1.325500 10.093500 2.147351 -4.885664 1.099060 -91.602180 -3.135609 26.611970 7.490492 -16.610937 -1.923561 0.306459 1.153138 25.395626 29.955860 -14.613826 -9.069100 -7.125000 0.000000 0.000000 1.638500 11.715800 -1.272200 -1.731418 5.472615 1.805146 87.915754 -7.082702 -4.407752 -9.338189 28.058567 -4.913905 -0.130436 -2.734052 14.036817 -23.667775 -43.095323 16.149600 7.125000 0.000000 0.000000 18.199000 -71.833800 -11.732900 
8.969930 17.821332 25.581125 -178.482564 3.170777 -167.622049 4.876369 3.065153 -0.265243 -21.404966 -13.084161 -8.175347 0.263374 4.501491 13.716715 0.823816 -1.701632 -16.138647 8.434200 -16.429500 -54.112100 -10.590221 -5.002023 -2.111232 33.167311 5.821675 -6.901406 0.061701 -2.607298 11.140677 -0.829057 1.921010 -15.464733 -0.728800 5.454400 -15.209400 -0.866086 3.243409 -4.128083 0.371122 3.514324 -5.422421 1.370958 1.817154 2.532319 -7.591750 0.000102 -13.326377 8.855447 -2.406561 24.124756 2.982500 -1.308800 10.112100 2.148826 -4.884735 1.101365 -91.520482 -3.184084 26.958916 7.548329 -16.692090 -1.936454 0.308297 1.154093 25.702654 30.021514 -14.497906 -9.031400 -7.125000 0.000000 0.000000 1.698700 11.833900 -1.314800 -1.745444 5.476722 1.799253 88.043980 -7.080234 -4.561793 -9.346575 28.021767 -4.858838 -0.149564 -2.700807 14.382815 -24.035015 -40.574419 15.584600 7.125000 0.000000 0.000000 14.350700 -69.638800 -8.522000 
8.972180 17.821546 25.585626 -178.567541 3.213219 -167.693217 4.873210 3.071168 -0.265122 -21.498814 -13.036249 -8.041892 0.250085 4.444391 13.571307 0.817812 -1.666099 -16.085113 8.416800 -16.417400 -54.050400 -10.591407 -4.992467 -2.106445 33.076335 5.962193 -6.829395 0.049445 -2.613608 11.171395 -0.820917 2.111914 -15.371673 -1.524600 7.796300 -22.097100 -0.992071 3.212246 -4.062682 0.378885 3.489038 -5.432812 1.444132 1.807160 2.471371 -7.655553 0.077917 -13.333987 8.971545 -2.290169 24.071152 3.046600 -1.248200 10.090100 2.142890 -4.888309 1.102366 -91.452468 -3.301970 26.851754 7.403892 -16.508889 -1.912011 0.328370 1.153219 26.131612 30.166056 -14.948703 -9.332300 -7.125000 0.000000 0.000000 1.733500 11.291200 -1.361200 -1.742413 5.484968 1.805714 88.107586 -7.128360 -4.942663 -9.296694 27.981190 -4.921317 -0.131347 -2.760719 14.971741 -22.593179 -44.062295 15.713100 7.125000 0.000000 0.000000 21.121100 -72.342700 -13.895300 
8.973680 17.820153 25.589484 -178.589176 3.275465 -167.785878 4.871347 3.076063 -0.270148 -21.523371 -12.904938 -7.893120 0.236316 4.380029 13.410327 0.810303 -1.633594 -16.013937 8.391300 -16.399600 -53.960200 -10.593604 -4.981323 -2.096676 33.069158 6.177518 -6.685109 0.053944 -2.612533 11.180928 -0.832869 2.023626 -15.479371 -0.804900 5.725700 -15.990700 -1.034680 3.231465 -3.976734 0.369611 3.522537 -5.448591 1.414039 1.827766 2.371819 -7.585540 0.113975 -13.304221 9.018402 -2.270414 24.077380 3.048700 -1.229900 10.089100 2.138410 -4.896330 1.107880 -91.286251 -3.378238 26.555782 7.174719 -16.214592 -1.872758 0.356230 1.151188 26.672082 30.336595 -15.675039 -9.795900 -7.125000 0.000000 0.000000 1.745700 10.429500 -1.401500 -1.756662 5.507487 1.803290 88.289747 -7.239238 -5.419297 -9.220627 27.869259 -4.898865 -0.133699 -2.777638 15.631893 -21.854140 -44.152862 15.233900 7.125000 0.000000 0.000000 22.196800 -72.178600 -14.544000 
